<?xml version="1.0" encoding="utf-8"?>
<!-- Generator: Adobe Illustrator 16.0.0, SVG Export Plug-In . SVG Version: 6.00 Build 0)  -->
<!DOCTYPE svg PUBLIC "-//W3C//DTD SVG 1.1//EN" "http://www.w3.org/Graphics/SVG/1.1/DTD/svg11.dtd">
<svg version="1.1" id="Capa_1" xmlns="http://www.w3.org/2000/svg" xmlns:xlink="http://www.w3.org/1999/xlink" x="0px" y="0px"
	 width="512px" height="408px" viewBox="0 0 512 408" enable-background="new 0 0 512 408" xml:space="preserve">
<path fill="#005A8F" d="M67.675,160.364c11.873-0.152,20.262,5.292,25.313,12.075c1.512,2.026,2.452,4.421,3.831,6.618
	c1.938-0.35,3.871-0.697,5.808-1.045c9.249-1.4,17.127,6.537,19.505,12.307c0.856,2.084,1.02,4.586,1.511,7.083
	c7.274,3.292,12.313,6.571,15.79,13.584c6.208,12.519-0.641,26.492-8.824,31.929c-2.646,1.758-5.954,3.196-9.521,3.946
	c-3.841,0.81-8.771,0.35-13.12,0.35c-8.629,0-17.261,0-25.893,0c-6.888,0-13.776,0-20.666,0c-2.504,0-6.747,0.587-8.592-0.35
	c-0.351-1.788-0.481-8.879,0.23-10.104c15.247,0,30.498,0,45.745,0c17.118,0.001,29.854,1.761,32.395-13.231
	c1.312-7.729-4.711-13.769-9.404-15.674c-2.722-1.107-6.446-0.66-8.127-2.787c-2.004-2.54-0.021-4.954-0.694-8.591
	c-0.433-2.319-1.686-4.585-3.251-5.807c-2.472-1.924-7.19-2.87-10.563-1.045c-2.07,1.12-4.551,4.409-8.127,2.322
	c-2.806-1.636-2.534-5.561-3.832-8.708c-1.006-1.664-2.014-3.329-3.021-4.993c-9.332-12.012-26.377-8.265-33.438,3.021
	c-1.291,0.109-10.432,0.509-11.03-0.35c-0.44-1.658,2.972-6.453,3.832-7.663c3.758-5.273,8.978-9.432,15.791-11.608
	c1.976-0.389,3.948-0.774,5.922-1.161C66.05,160.442,66.862,160.403,67.675,160.364z"/>
<path fill="#0081C1" d="M31.915,185.675c4.412,0,8.825,0,13.234,0c1.504,0,3.771-0.266,4.876,0.232c0,0.039,0,0.078,0,0.116
	c-0.436,3.664-1.499,8.348-4.18,9.869c-3.257,1.848-9.654-0.139-13.935,0.581c-5.375,0.9-9.89,2.877-12.771,6.27
	c-10.388,12.223-4.354,29.659,9.868,33.321c3.985,1.022,9.787,0.463,14.514,0.463c1.509,0,3.771-0.262,4.876,0.229
	c-0.038,3.521-0.075,7.047-0.114,10.566c-6.522,0.058-14.703,0.909-20.437-0.466c-15.025-3.606-29.266-18.272-23.803-38.547
	c0.967-3.58,2.66-6.87,4.528-9.639c3.542-5.248,9.373-9.51,16.021-11.608C26.78,186.379,29.601,186.595,31.915,185.675z"/>
<path fill="#005A8F" d="M62.673,219.83l-17.398-7.253v-3.688l17.398-7.271v4.782l-10.749,4.334l10.749,4.306V219.83z"/>
<path fill="#005A8F" d="M78.272,195.846l-8.662,30.404h-5.533l8.719-30.404H78.272L78.272,195.846z"/>
<path fill="#0081C1" d="M79.676,201.616l17.401,7.235v3.707l-17.401,7.271v-4.781l10.739-4.331l-10.739-4.309V201.616z"/>
<g id="Capa_2" display="none">
	<g display="inline">
		<path fill="#0081C1" d="M142.5,113.131c-2.481-1.374-4.191-3.17-5.13-5.389c-0.157-0.375-0.232-0.688-0.232-0.938
			c0-0.47,0.171-0.884,0.516-1.241c0.344-0.357,0.813-0.604,1.405-0.729c0.095-0.028,0.25-0.047,0.47-0.047
			c0.499,0,0.977,0.147,1.43,0.445c0.453,0.297,0.789,0.694,1.008,1.194c0.563,1.218,1.671,2.248,3.327,3.092
			c1.654,0.845,3.48,1.267,5.48,1.267c2.345,0,4.326-0.539,5.951-1.617c1.624-1.075,2.438-2.555,2.438-4.428
			c0-1.78-0.688-3.303-2.063-4.568c-1.375-1.265-3.469-2.036-6.278-2.316c-3.874-0.375-6.92-1.508-9.138-3.396
			c-2.22-1.891-3.327-4.256-3.327-7.099c0-1.999,0.567-3.725,1.71-5.177c1.142-1.453,2.702-2.563,4.688-3.327
			c1.982-0.767,4.209-1.148,6.679-1.148c2.688,0,4.949,0.547,6.794,1.642c1.843,1.094,3.402,2.653,4.688,4.686
			c0.375,0.594,0.563,1.156,0.563,1.688c0,0.688-0.313,1.25-0.938,1.687c-0.346,0.219-0.75,0.328-1.22,0.328
			c-0.468,0-0.904-0.117-1.313-0.352c-0.404-0.234-0.719-0.556-0.938-0.962c-0.844-1.404-1.896-2.475-3.163-3.209
			c-1.266-0.731-2.865-1.101-4.804-1.101c-2.375,0-4.295,0.461-5.765,1.382c-1.469,0.921-2.2,2.257-2.2,4.006
			c0,1.625,0.654,2.984,1.968,4.077c1.313,1.094,3.653,1.813,7.026,2.156c3.749,0.375,6.653,1.508,8.717,3.396
			c2.063,1.892,3.093,4.383,3.093,7.475c0,2.249-0.607,4.18-1.827,5.787c-1.219,1.607-2.834,2.813-4.851,3.605
			c-2.017,0.797-4.18,1.195-6.489,1.195C147.74,115.193,144.984,114.506,142.5,113.131z"/>
		<path fill="#0081C1" d="M183.264,110.695c0.391,0.438,0.585,1,0.585,1.687c0,0.688-0.259,1.25-0.771,1.688
			c-0.518,0.438-1.182,0.656-1.991,0.656h-0.844c-1.531,0-2.93-0.398-4.193-1.193c-1.265-0.797-2.257-1.883-2.975-3.258
			c-0.721-1.373-1.078-2.921-1.078-4.64V94.062h-2.155c-0.654,0-1.188-0.188-1.593-0.563c-0.404-0.375-0.607-0.845-0.607-1.403
			c0-0.625,0.203-1.125,0.607-1.5s0.938-0.563,1.593-0.563h2.155v-6.748c0-0.687,0.218-1.249,0.655-1.687
			c0.437-0.438,1-0.656,1.688-0.656c0.688,0,1.249,0.219,1.688,0.656c0.438,0.438,0.655,1,0.655,1.687v6.748h3.981
			c0.655,0,1.188,0.188,1.594,0.563c0.404,0.375,0.608,0.875,0.608,1.5c0,0.563-0.204,1.028-0.608,1.403
			c-0.405,0.375-0.938,0.563-1.594,0.563h-3.981v11.573c0,1.25,0.345,2.296,1.029,3.141c0.688,0.842,1.53,1.265,2.53,1.265h1.593
			C182.397,110.037,182.873,110.257,183.264,110.695z"/>
		<path fill="#0081C1" d="M207.863,90.616c1.951,1.141,3.498,2.703,4.64,4.688c1.142,1.981,1.71,4.192,1.71,6.63v10.447
			c0,0.688-0.228,1.26-0.679,1.71c-0.453,0.453-1.021,0.682-1.71,0.682c-0.688,0-1.259-0.229-1.711-0.682
			c-0.452-0.45-0.68-1.021-0.68-1.71v-1.73c-1.096,1.342-2.421,2.389-3.981,3.139c-1.563,0.75-3.249,1.125-5.063,1.125
			c-2.249,0-4.287-0.563-6.115-1.688c-1.825-1.125-3.264-2.681-4.313-4.662c-1.047-1.982-1.567-4.193-1.567-6.631
			s0.563-4.646,1.688-6.63c1.125-1.984,2.679-3.547,4.662-4.688c1.981-1.14,4.178-1.71,6.583-1.71
			C203.731,88.906,205.91,89.477,207.863,90.616z M205.567,109.546c1.266-0.765,2.256-1.812,2.976-3.14s1.078-2.818,1.078-4.476
			c0-1.655-0.357-3.153-1.078-4.498c-0.719-1.345-1.71-2.396-2.976-3.162c-1.268-0.768-2.68-1.147-4.24-1.147
			c-1.563,0-2.977,0.383-4.24,1.147c-1.265,0.764-2.266,1.817-2.999,3.162c-0.732,1.345-1.102,2.843-1.102,4.498
			c0,1.654,0.366,3.146,1.102,4.476c0.732,1.328,1.732,2.375,2.999,3.14c1.267,0.768,2.68,1.147,4.24,1.147
			S204.301,110.312,205.567,109.546z"/>
		<path fill="#0081C1" d="M226.299,113.225c-1.968-1.125-3.507-2.681-4.613-4.662c-1.107-1.982-1.663-4.193-1.663-6.631
			c0-2.498,0.539-4.738,1.616-6.726c1.076-1.981,2.584-3.527,4.521-4.639c1.938-1.108,4.123-1.663,6.561-1.663
			c3.688,0,6.746,1.405,9.186,4.217c0.313,0.347,0.47,0.75,0.47,1.219c0,0.688-0.345,1.268-1.03,1.732
			c-0.313,0.22-0.673,0.328-1.077,0.328c-0.721,0-1.328-0.281-1.826-0.844c-0.78-0.845-1.633-1.46-2.557-1.853
			c-0.922-0.392-1.977-0.587-3.16-0.587c-2.406,0-4.356,0.807-5.856,2.414c-1.5,1.608-2.249,3.74-2.249,6.396
			c0,1.688,0.353,3.192,1.055,4.521c0.703,1.326,1.688,2.365,2.952,3.115c1.267,0.75,2.709,1.125,4.334,1.125
			c2.123,0,3.842-0.548,5.152-1.644c0.595-0.437,1.172-0.653,1.731-0.653c0.438,0,0.845,0.141,1.22,0.422
			c0.595,0.5,0.893,1.063,0.893,1.688c0,0.471-0.188,0.892-0.563,1.267c-2.249,2.095-5.063,3.14-8.436,3.14
			C230.485,114.91,228.268,114.349,226.299,113.225z"/>
		<path fill="#0081C1" d="M269.36,112.756c0,0.688-0.28,1.267-0.845,1.732c-0.471,0.375-0.971,0.563-1.499,0.563
			c-0.688,0-1.25-0.279-1.688-0.844l-8.902-11.011l-2.343,2.062v7.171c0,0.688-0.211,1.239-0.633,1.661
			c-0.423,0.424-0.979,0.635-1.663,0.635c-0.688,0-1.241-0.211-1.663-0.635c-0.422-0.422-0.633-0.976-0.633-1.661V80.426
			c0-0.687,0.211-1.24,0.633-1.661c0.422-0.424,0.979-0.635,1.663-0.635c0.688,0,1.24,0.211,1.663,0.635
			c0.422,0.421,0.633,0.977,0.633,1.661v19.07l11.388-10.167c0.404-0.405,0.892-0.607,1.451-0.607c0.655,0,1.188,0.251,1.595,0.75
			c0.403,0.404,0.607,0.89,0.607,1.45c0,0.656-0.251,1.188-0.75,1.596l-8.621,7.684l9.09,11.151
			C269.188,111.725,269.36,112.193,269.36,112.756z"/>
		<path fill="#005A8F" d="M277.323,114.021c-0.469-0.468-0.701-1.046-0.701-1.733v-31.72c0-0.718,0.232-1.304,0.701-1.757
			c0.47-0.453,1.048-0.682,1.733-0.682h11.196c2.095,0,3.951,0.415,5.576,1.242c1.624,0.828,2.896,1.984,3.816,3.467
			c0.921,1.484,1.383,3.163,1.383,5.037c0,1.531-0.415,2.905-1.241,4.124c-0.827,1.22-1.96,2.201-3.396,2.951
			c2.123,0.5,3.795,1.5,5.013,2.998c1.22,1.5,1.828,3.405,1.828,5.718c0,2.124-0.509,4.028-1.521,5.716
			c-1.018,1.688-2.438,2.999-4.266,3.938c-1.825,0.937-3.896,1.404-6.208,1.404h-12.183
			C278.37,114.724,277.792,114.488,277.323,114.021z M290.256,93.17c1.845,0,3.316-0.452,4.43-1.356
			c1.106-0.906,1.664-2.218,1.664-3.938c0-1.718-0.558-3.021-1.664-3.913c-1.108-0.89-2.585-1.335-4.43-1.335h-8.762V93.17H290.256z
			 M291.24,110.226c2.188,0,3.951-0.569,5.295-1.71c1.344-1.143,2.019-2.759,2.019-4.852c0-1.938-0.664-3.422-1.992-4.451
			c-1.327-1.029-3.102-1.547-5.316-1.547H281.5v12.56H291.24z"/>
		<path fill="#005A8F" d="M332.426,102.986c-0.404,0.392-0.922,0.586-1.547,0.586h-17.807c0.344,2.188,1.335,3.953,2.978,5.295
			c1.642,1.344,3.646,2.016,6.021,2.016c0.938,0,1.913-0.172,2.93-0.516c1.018-0.344,1.854-0.767,2.508-1.267
			c0.438-0.345,0.951-0.517,1.548-0.517c0.593,0,1.062,0.156,1.402,0.47c0.563,0.47,0.847,1,0.847,1.595
			c0,0.563-0.25,1.029-0.75,1.404c-1.063,0.844-2.384,1.529-3.96,2.063c-1.576,0.532-3.085,0.797-4.521,0.797
			c-2.563,0-4.854-0.555-6.888-1.663c-2.033-1.106-3.616-2.646-4.756-4.615c-1.144-1.97-1.711-4.199-1.711-6.699
			c0-2.498,0.538-4.739,1.614-6.726c1.078-1.981,2.576-3.527,4.498-4.639c1.922-1.108,4.103-1.663,6.535-1.663
			c2.405,0,4.482,0.531,6.232,1.593c1.749,1.063,3.092,2.547,4.027,4.451c0.938,1.906,1.403,4.093,1.403,6.563
			C333.032,102.104,332.83,102.596,332.426,102.986z M315.816,94.811c-1.422,1.249-2.318,2.922-2.693,5.014h15.604
			c-0.281-2.092-1.063-3.765-2.343-5.014c-1.281-1.249-2.952-1.875-5.018-1.875C319.087,92.936,317.236,93.562,315.816,94.811z"/>
		<path fill="#005A8F" d="M360.162,91.156c0,0.313-0.095,0.688-0.28,1.125l-14.338,32.235c-0.374,0.968-0.981,1.45-1.827,1.45
			c-0.313,0-0.688-0.094-1.124-0.279c-0.938-0.406-1.404-1.018-1.404-1.826c0-0.375,0.094-0.75,0.279-1.125l4.688-10.543
			l-10.542-20.007c-0.156-0.281-0.232-0.609-0.232-0.984c0-0.405,0.124-0.78,0.375-1.124c0.249-0.344,0.576-0.607,0.981-0.797
			c0.281-0.125,0.594-0.188,0.938-0.188c0.874,0,1.529,0.438,1.97,1.313l8.572,17.056l7.545-17.009
			c0.403-0.905,1.016-1.356,1.826-1.356c0.404,0,0.778,0.076,1.125,0.232C359.679,89.703,360.162,90.312,360.162,91.156z"/>
		<path fill="#005A8F" d="M368.362,113.248c-1.968-1.106-3.499-2.646-4.592-4.615c-1.096-1.969-1.642-4.199-1.642-6.699
			c0-2.529,0.546-4.777,1.642-6.747c1.093-1.97,2.624-3.506,4.592-4.615c1.969-1.108,4.201-1.663,6.7-1.663
			c2.468,0,4.678,0.555,6.63,1.663c1.952,1.109,3.481,2.646,4.593,4.615c1.107,1.97,1.663,4.218,1.663,6.747
			c0,2.5-0.547,4.73-1.641,6.699c-1.096,1.97-2.616,3.509-4.568,4.615c-1.951,1.107-4.178,1.662-6.677,1.662
			S370.329,114.357,368.362,113.248z M379.35,109.57c1.266-0.75,2.249-1.789,2.952-3.115c0.701-1.328,1.055-2.836,1.055-4.521
			c0-1.688-0.354-3.2-1.055-4.545c-0.703-1.345-1.688-2.392-2.952-3.141c-1.267-0.75-2.693-1.125-4.287-1.125
			c-1.593,0-3.021,0.375-4.287,1.125c-1.265,0.749-2.257,1.796-2.978,3.141c-0.72,1.345-1.075,2.856-1.075,4.545
			c0,1.688,0.355,3.192,1.075,4.521c0.721,1.326,1.713,2.365,2.978,3.115c1.268,0.75,2.694,1.125,4.287,1.125
			S378.085,110.32,379.35,109.57z"/>
		<path fill="#005A8F" d="M413.623,90.265c1.719,0.938,3.063,2.306,4.029,4.101c0.969,1.797,1.452,3.959,1.452,6.489v11.524
			c0,0.688-0.229,1.26-0.682,1.71c-0.451,0.453-1.021,0.682-1.71,0.682c-0.688,0-1.259-0.229-1.71-0.682
			c-0.453-0.45-0.681-1.021-0.681-1.71v-11.524c0-2.53-0.681-4.442-2.038-5.739c-1.356-1.297-3.163-1.944-5.411-1.944
			c-1.313,0-2.508,0.268-3.584,0.799c-1.078,0.529-1.922,1.25-2.53,2.153c-0.607,0.906-0.912,1.921-0.912,3.046v13.213
			c0,0.688-0.221,1.26-0.656,1.71c-0.438,0.453-1.017,0.682-1.731,0.682c-0.688,0-1.259-0.229-1.711-0.682
			c-0.452-0.45-0.681-1.021-0.681-1.71V91.485c0-0.719,0.229-1.296,0.681-1.733c0.452-0.437,1.021-0.654,1.711-0.654
			c0.721,0,1.296,0.219,1.731,0.654c0.438,0.438,0.656,1.017,0.656,1.733v0.516c0.999-1,2.188-1.771,3.563-2.317
			c1.374-0.547,2.843-0.82,4.403-0.82C409.97,88.86,411.906,89.328,413.623,90.265z"/>
		<path fill="#005A8F" d="M450.873,78.786c0.438,0.438,0.655,1.015,0.655,1.733v21.366c0,2.438-0.566,4.646-1.711,6.631
			c-1.141,1.982-2.687,3.545-4.639,4.686c-1.952,1.144-4.131,1.711-6.536,1.711s-4.602-0.567-6.583-1.711
			c-1.984-1.141-3.537-2.701-4.662-4.686c-1.124-1.982-1.687-4.193-1.687-6.631s0.521-4.646,1.565-6.632
			c1.046-1.981,2.483-3.535,4.313-4.66c1.825-1.124,3.863-1.688,6.112-1.688c1.813,0,3.498,0.375,5.063,1.125
			c1.563,0.749,2.89,1.796,3.98,3.139V80.519c0-0.72,0.229-1.296,0.682-1.733c0.453-0.437,1.021-0.656,1.711-0.656
			C449.858,78.13,450.437,78.349,450.873,78.786z M442.885,109.546c1.266-0.765,2.257-1.817,2.976-3.162
			c0.72-1.343,1.078-2.843,1.078-4.497c0-1.655-0.358-3.146-1.078-4.477c-0.719-1.327-1.71-2.373-2.976-3.14
			c-1.268-0.768-2.682-1.147-4.24-1.147c-1.563,0-2.976,0.383-4.24,1.147c-1.264,0.765-2.265,1.813-2.999,3.14
			c-0.73,1.328-1.101,2.818-1.101,4.477c0,1.655,0.366,3.154,1.101,4.497c0.735,1.345,1.734,2.397,2.999,3.162
			c1.269,0.768,2.682,1.147,4.24,1.147C440.205,110.695,441.619,110.312,442.885,109.546z"/>
	</g>
</g>
<g id="Capa_3">
</g>
<g enable-background="new    ">
	<path fill="#005A8F" d="M158.735,225.969c-2.11-0.864-3.796-2.145-5.059-3.84c-1.263-1.694-1.929-3.736-1.998-6.123h9.443
		c0.138,1.35,0.605,2.379,1.401,3.088c0.795,0.709,1.833,1.063,3.113,1.063c1.314,0,2.352-0.303,3.113-0.908
		c0.761-0.604,1.142-1.444,1.142-2.517c0-0.899-0.303-1.643-0.908-2.231c-0.606-0.588-1.349-1.071-2.231-1.452
		c-0.882-0.381-2.136-0.813-3.762-1.298c-2.353-0.727-4.272-1.452-5.759-2.179c-1.488-0.727-2.768-1.799-3.84-3.218
		c-1.073-1.418-1.608-3.269-1.608-5.552c0-3.39,1.228-6.045,3.684-7.965c2.456-1.919,5.656-2.879,9.6-2.879
		c4.012,0,7.246,0.96,9.703,2.879c2.456,1.92,3.77,4.593,3.943,8.017h-9.599c-0.07-1.175-0.502-2.101-1.297-2.775
		c-0.796-0.675-1.816-1.012-3.062-1.012c-1.073,0-1.938,0.285-2.594,0.855c-0.658,0.571-0.986,1.394-0.986,2.465
		c0,1.177,0.553,2.094,1.66,2.75c1.107,0.658,2.836,1.367,5.189,2.128c2.352,0.796,4.263,1.557,5.733,2.283
		c1.47,0.726,2.741,1.781,3.813,3.165s1.609,3.165,1.609,5.344c0,2.076-0.528,3.962-1.583,5.656
		c-1.056,1.695-2.586,3.044-4.592,4.047c-2.006,1.004-4.376,1.505-7.108,1.505C163.231,227.265,160.844,226.833,158.735,225.969z"/>
	<path fill="#005A8F" d="M184.704,204.539c1.228-2.248,2.939-3.978,5.137-5.188c2.196-1.211,4.713-1.816,7.55-1.816
		c3.632,0,6.667,0.952,9.106,2.854c2.439,1.903,4.039,4.584,4.8,8.043h-9.444c-0.796-2.214-2.334-3.321-4.618-3.321
		c-1.626,0-2.923,0.632-3.892,1.895c-0.969,1.263-1.453,3.07-1.453,5.422c0,2.353,0.484,4.16,1.453,5.422
		c0.968,1.264,2.265,1.895,3.892,1.895c2.283,0,3.822-1.107,4.618-3.321h9.444c-0.761,3.391-2.37,6.054-4.826,7.991
		c-2.457,1.938-5.483,2.905-9.08,2.905c-2.837,0-5.354-0.604-7.55-1.816c-2.197-1.21-3.909-2.939-5.137-5.188
		c-1.229-2.248-1.842-4.877-1.842-7.887S183.475,206.788,184.704,204.539z"/>
	<path fill="#005A8F" d="M228.782,199.012c1.557-0.916,3.286-1.375,5.188-1.375v9.392h-2.438c-2.214,0-3.875,0.477-4.981,1.427
		c-1.107,0.952-1.66,2.621-1.66,5.008v13.438h-8.873v-28.953h8.873v4.825C225.928,201.183,227.225,199.929,228.782,199.012z"/>
	<path fill="#005A8F" d="M238.874,193.564c-0.986-0.916-1.479-2.049-1.479-3.398c0-1.383,0.493-2.533,1.479-3.45
		c0.986-0.916,2.257-1.375,3.813-1.375c1.522,0,2.776,0.459,3.762,1.375c0.986,0.917,1.479,2.067,1.479,3.45
		c0,1.35-0.493,2.482-1.479,3.398c-0.986,0.917-2.24,1.375-3.762,1.375C241.131,194.939,239.86,194.481,238.874,193.564z
		 M247.098,197.949v28.953h-8.873v-28.953H247.098z"/>
	<path fill="#005A8F" d="M265.984,198.779c1.522-0.83,3.304-1.245,5.345-1.245c2.388,0,4.548,0.605,6.486,1.816
		c1.938,1.211,3.467,2.94,4.592,5.188c1.123,2.249,1.686,4.86,1.686,7.835c0,2.976-0.563,5.596-1.686,7.86
		c-1.125,2.267-2.654,4.014-4.592,5.241c-1.938,1.229-4.099,1.842-6.486,1.842c-2.007,0-3.779-0.415-5.318-1.245
		c-1.54-0.83-2.741-1.902-3.606-3.217v17.849h-8.873v-42.755h8.873v4.099C263.269,200.699,264.463,199.609,265.984,198.779z
		 M273.222,207.159c-1.228-1.263-2.741-1.894-4.539-1.894c-1.765,0-3.262,0.641-4.488,1.92c-1.229,1.279-1.842,3.027-1.842,5.24
		c0,2.214,0.613,3.961,1.842,5.24c1.227,1.28,2.724,1.92,4.488,1.92c1.764,0,3.269-0.648,4.514-1.945s1.867-3.053,1.867-5.267
		S274.451,208.422,273.222,207.159z"/>
	<path fill="#005A8F" d="M304.899,219.379v7.523h-4.514c-3.217,0-5.726-0.786-7.523-2.361c-1.8-1.573-2.698-4.142-2.698-7.705
		v-11.519h-3.528v-7.368h3.528v-7.057h8.872v7.057h5.812v7.368h-5.812v11.623c0,0.864,0.208,1.487,0.623,1.867
		c0.415,0.382,1.106,0.571,2.075,0.571H304.899z"/>
</g>
<g enable-background="new    ">
	<path fill="#0081C1" d="M335.771,233.129l-4.67-6.278c-1.383,0.276-2.732,0.415-4.047,0.415c-3.424,0-6.563-0.795-9.418-2.387
		c-2.854-1.591-5.119-3.813-6.797-6.668c-1.678-2.854-2.516-6.062-2.516-9.625c0-3.563,0.838-6.762,2.516-9.599
		c1.678-2.836,3.943-5.051,6.797-6.642c2.854-1.591,5.994-2.387,9.418-2.387c3.425,0,6.564,0.796,9.418,2.387
		s5.102,3.806,6.745,6.642c1.643,2.837,2.465,6.036,2.465,9.599c0,3.113-0.632,5.959-1.894,8.536
		c-1.264,2.577-3.02,4.713-5.268,6.407l7.991,9.6H335.771z M320.024,216.291c1.746,1.92,4.09,2.88,7.03,2.88
		c2.906,0,5.232-0.968,6.979-2.905c1.747-1.938,2.621-4.496,2.621-7.68c0-3.217-0.874-5.785-2.621-7.705
		c-1.746-1.92-4.072-2.88-6.979-2.88c-2.94,0-5.284,0.952-7.03,2.854c-1.747,1.903-2.62,4.48-2.62,7.731
		C317.404,211.802,318.277,214.371,320.024,216.291z"/>
	<path fill="#0081C1" d="M379.304,197.949v28.953h-8.873v-3.943c-0.899,1.28-2.119,2.309-3.657,3.087
		c-1.54,0.778-3.243,1.168-5.111,1.168c-2.214,0-4.169-0.493-5.863-1.479c-1.694-0.986-3.009-2.413-3.943-4.281
		c-0.934-1.868-1.401-4.064-1.401-6.59v-16.915h8.821v15.722c0,1.938,0.501,3.442,1.505,4.515c1.003,1.072,2.352,1.608,4.047,1.608
		c1.729,0,3.096-0.536,4.1-1.608c1.002-1.072,1.504-2.577,1.504-4.515v-15.722H379.304z"/>
	<path fill="#0081C1" d="M385.609,204.539c1.123-2.248,2.654-3.978,4.592-5.188s4.1-1.816,6.486-1.816
		c2.041,0,3.83,0.415,5.37,1.245c1.539,0.83,2.724,1.92,3.554,3.269v-4.099h8.873v28.953h-8.873v-4.099
		c-0.864,1.349-2.066,2.438-3.605,3.269s-3.33,1.245-5.371,1.245c-2.352,0-4.496-0.613-6.434-1.842
		c-1.938-1.228-3.469-2.975-4.592-5.241c-1.125-2.265-1.687-4.885-1.687-7.86C383.923,209.399,384.484,206.788,385.609,204.539z
		 M403.769,207.185c-1.229-1.279-2.724-1.92-4.488-1.92c-1.764,0-3.26,0.631-4.488,1.894s-1.842,3.001-1.842,5.215
		s0.613,3.97,1.842,5.267s2.725,1.945,4.488,1.945c1.765,0,3.26-0.64,4.488-1.92c1.229-1.279,1.842-3.026,1.842-5.24
		C405.611,210.213,404.998,208.465,403.769,207.185z"/>
	<path fill="#0081C1" d="M429.791,188.506v38.396h-8.873v-38.396H429.791z"/>
	<path fill="#0081C1" d="M436.873,193.564c-0.986-0.916-1.479-2.049-1.479-3.398c0-1.383,0.492-2.533,1.479-3.45
		c0.986-0.916,2.258-1.375,3.814-1.375c1.521,0,2.775,0.459,3.762,1.375c0.984,0.917,1.479,2.067,1.479,3.45
		c0,1.35-0.494,2.482-1.479,3.398c-0.986,0.917-2.24,1.375-3.762,1.375C439.131,194.939,437.859,194.481,436.873,193.564z
		 M445.097,197.949v28.953h-8.873v-28.953H445.097z"/>
	<path fill="#0081C1" d="M467.668,219.379v7.523h-4.514c-3.217,0-5.726-0.786-7.523-2.361c-1.8-1.573-2.698-4.142-2.698-7.705
		v-11.519h-3.528v-7.368h3.528v-7.057h8.872v7.057h5.812v7.368h-5.812v11.623c0,0.864,0.208,1.487,0.623,1.867
		c0.415,0.382,1.106,0.571,2.075,0.571H467.668z"/>
	<path fill="#0081C1" d="M502.173,197.949l-18.161,42.703h-9.547l6.642-14.736l-11.778-27.967h9.91l6.693,18.108l6.642-18.108
		H502.173z"/>
</g>
</svg>
